<svg width="308" height="64" viewBox="0 0 308 64" fill="none" xmlns="http://www.w3.org/2000/svg">
  <path d="M19.0409 20.0877C20.5155 21.89 20.0712 23.827 20.0712 26.1059C21.0887 24.5796 24.5825 21.0375 26.253 20.1531C27.5992 19.4404 28.0865 19.577 28.9023 20.8727C30.0077 22.6283 30.6685 25.8123 30.6685 27.8722C30.6685 31.5017 33.1992 33.5315 35.5257 35.9837C36.9945 37.532 38.6166 39.2864 38.6166 41.5278V43.8991C38.6166 46.8272 38.9109 49.7266 38.9109 52.6648C38.9109 55.5485 39.047 59.1881 38.2568 61.9539C37.6726 63.9985 34.6791 64.2025 32.8763 63.8019C30.197 63.2065 27.5805 60.4031 25.6806 58.5032C25.1468 57.9694 23.4196 55.072 22.7205 56.2954C21.8762 57.7729 19.118 58.4868 17.5526 58.4868C16.4764 58.4868 16.2443 56.2248 16.2443 55.2487C16.2443 53.4915 14.9352 50.9392 14.4746 49.235C13.8203 46.8139 13.4768 44.9754 12.4829 42.6562C11.295 39.8844 8.84389 37.4875 7.98556 34.6264C7.3866 32.6298 7.13841 30.7854 6.66089 28.7389L6.65311 28.7056C6.29521 27.1717 5.89539 25.4581 5.18903 24.0453C4.68182 23.0309 3.90988 22.1565 3.45551 21.118C2.24127 18.3426 2.58763 14.9596 1.08418 12.2868C0.273794 10.8461 0.0538765 10.6082 0.0538765 8.86884C0.0538765 7.67136 -0.327073 5.72016 0.936992 4.9766C1.57975 4.5985 2.72925 4.40121 3.06301 3.73369C3.38765 3.08441 4.45441 -0.935334 4.99278 0.201232C6.22876 2.81052 8.14589 4.04068 10.0135 6.2195C10.9987 7.369 11.4522 8.40671 11.9759 9.76831C12.1482 10.2162 12.4374 10.8427 12.8754 11.093C14.5558 12.0532 15.9142 13.6316 16.8167 15.3614C17.7016 17.0575 17.8222 18.5982 19.0409 20.0877Z" fill="#FFABE2" />
  <path fill-rule="evenodd" clip-rule="evenodd" d="M32.5429 56.0962C32.8376 56.1038 33.1589 56.1364 33.257 56.1693C33.5781 56.276 34.2016 56.2493 34.5517 56.1139C35.2433 55.846 35.4019 55.5367 35.4594 54.3418C35.5065 53.367 35.4856 53.2394 34.7723 50.1257C34.0223 46.8515 33.1048 43.3577 32.5027 41.4826C31.8851 39.5596 30.0344 34.7603 29.077 32.5982C28.7982 31.9688 28.4237 31.1017 28.2444 30.6709C26.8882 27.4112 25.7119 26.1499 24.0326 26.1554C23.529 26.157 23.4761 26.1697 23.1516 26.3656C22.8629 26.5401 22.7497 26.6632 22.462 27.1169C21.7945 28.1694 20.9136 29.9367 20.5732 30.906C20.4501 31.2571 20.3337 31.5443 20.3149 31.5443C20.2865 31.5443 18.192 27.3351 16.7185 24.3166C16.046 22.9383 14.1448 19.2357 13.7965 18.6249C13.1828 17.5487 12.4646 16.4156 11.7918 15.4627C11.4292 14.9492 10.9234 14.1889 10.6678 13.7729C10.1063 12.8595 8.58603 10.6514 8.12819 10.0843C7.29204 9.04859 6.35296 8.41574 5.65223 8.41574C5.56293 8.41574 5.45955 8.40631 5.36321 8.39136C5.25755 8.3748 5.16008 8.35135 5.09873 8.32536C4.98126 8.27546 4.72337 8.23499 4.52569 8.23499C3.69659 8.23499 3.25647 8.86738 3.58275 9.59015C3.64251 9.72261 3.79974 10.0004 3.93244 10.2074C4.0031 10.3175 4.0874 10.4769 4.16397 10.6408C4.23077 10.7841 4.29189 10.9306 4.33279 11.0506C4.63907 11.947 5.09623 13.2125 5.5243 14.3483C5.76129 14.9779 6.27025 16.4007 6.65538 17.5105C7.04028 18.6203 7.54129 19.989 7.76851 20.5522C8.44856 22.2373 9.76959 25.7909 10.5314 27.9857C11.0536 29.4894 11.2847 30.3435 11.8861 32.9899C12.1683 34.2321 12.5434 35.7499 12.7195 36.3627L13.2867 38.3344C13.4225 38.8061 13.7343 40.1612 13.9794 41.346C14.1112 41.9825 14.2564 42.6742 14.3798 43.2551C14.4861 43.7555 14.5763 44.1736 14.6279 44.4035C14.879 45.5214 14.9794 46.0802 15.1371 47.2346C15.2784 48.2694 15.5199 49.6704 15.6406 50.1558C15.686 50.3379 15.754 50.7174 15.7917 50.9988C15.8292 51.2805 15.913 51.6296 15.978 51.7747C16.1471 52.1532 16.616 52.6272 17.02 52.8277C17.2111 52.9227 17.414 53.0243 17.4708 53.0538C17.5276 53.083 17.7476 53.1071 17.9596 53.1071C18.2047 53.1071 18.4549 53.1511 18.6469 53.2276C18.9957 53.3665 19.296 53.3769 19.618 53.2607C19.9241 53.1501 20.0211 53.0547 20.5359 52.3579C21.1126 51.5774 21.682 50.4412 21.682 50.0709C21.682 49.8778 21.7211 49.7564 21.8229 49.6333C21.9004 49.5397 22.1464 49.1785 22.3698 48.8308C23.7313 46.7094 24.5536 45.4982 24.9612 45.0136C24.9855 44.9849 25.2245 45.2965 25.4924 45.7065C25.7605 46.1163 26.1697 46.6953 26.4022 46.9936C26.9452 47.6904 27.1524 48.0392 27.7834 49.3183C28.3128 50.3917 29.3398 52.3834 29.9661 53.551C30.159 53.9108 30.3325 54.2903 30.3516 54.394C30.4084 54.7035 30.7293 55.2626 30.9833 55.495C31.1142 55.6146 31.3982 55.7958 31.6143 55.8975C31.9492 56.0552 32.0866 56.0837 32.5429 56.0962ZM19.438 46.7177C19.2263 47.0359 19.0486 47.2972 18.9504 47.4324C18.7412 47.721 18.551 47.9794 18.5278 48.0059C18.5049 48.0326 18.4399 47.7479 18.3838 47.3735C18.2286 46.3384 18.0579 45.5094 17.3383 42.2957C16.6108 39.0468 16.6476 39.1926 16.1175 37.447C15.6242 35.823 15.4606 35.1892 14.9585 32.9597C14.4727 30.8036 14.3028 30.171 13.8267 28.751C13.3589 27.356 11.9738 23.5835 11.2924 21.8494C10.987 21.0721 10.745 20.4275 10.7546 20.4186C10.7886 20.3841 12.1576 23.2844 12.6657 24.467C12.9501 25.1298 13.3176 25.9836 13.4821 26.3645C13.6466 26.7455 14.1896 27.8974 14.6888 28.9244C17.1232 33.932 17.4583 34.6129 17.7319 35.3185C17.7937 35.4781 17.8523 35.6388 17.9314 35.8511C18.3424 36.9556 18.5867 37.3929 19.06 37.872C19.9097 38.732 21.1181 39.1085 22.0003 38.7884C22.4025 38.6426 22.8154 38.216 22.9826 37.7735C23.0235 37.6657 23.1255 37.4546 23.2523 37.2108C23.3527 37.0179 23.4688 36.8045 23.5824 36.6062C24.0596 35.7731 24.4745 34.8567 24.7156 34.1043C24.7899 33.8725 24.8683 33.6627 24.8896 33.6388C24.9112 33.6147 25.1918 34.2921 25.5135 35.1446C26.8341 38.643 27.5728 40.652 27.8107 41.3922C28.0729 42.2083 29.1803 46.094 29.1803 46.1977C29.1803 46.3495 28.5264 45.4287 26.8791 42.9582C25.8203 41.3697 25.2082 40.8723 24.2598 40.8297C23.5863 40.7996 23.3702 40.9235 23.0171 41.5433C22.7502 42.0115 22.4075 42.4859 21.5927 43.5161C21.331 43.847 20.715 44.7455 20.224 45.5124C19.9629 45.9204 19.6784 46.3559 19.438 46.7177Z" fill="var(--color-subheading, #282520)" />
  <path d="M44.3447 33.115H44.9047L42.1847 48.715C42.0247 49.635 42.5047 50.235 43.4247 50.235H46.6247C47.5447 50.235 48.2647 49.635 48.4247 48.715L51.1447 33.115H52.6247C53.4647 33.115 54.1847 32.515 54.3447 31.635L54.7447 29.275C54.9047 28.435 54.4247 27.835 53.5847 27.835H52.1047L52.1847 27.435C52.3447 26.315 52.7047 25.835 53.8647 25.675C54.8247 25.555 55.5047 24.995 55.6647 24.075L56.1047 21.755C56.2647 20.835 55.7447 20.235 54.8247 20.275C49.3847 20.555 46.7847 22.555 46.0647 26.635L45.8647 27.835H45.3047C44.5047 27.835 43.8247 28.395 43.7047 29.195L43.2247 31.755C43.1047 32.555 43.5447 33.115 44.3447 33.115Z" fill="var(--color-subheading, #282520)" />
  <path d="M61.4347 33.915C61.7947 33.035 62.3147 32.555 63.2347 32.555C64.3147 32.555 64.7147 32.995 64.5147 34.155L63.9947 37.115H61.4347C56.7147 37.115 53.7547 39.595 52.9947 43.915C52.2347 48.115 53.6747 50.635 57.3947 50.635C59.7547 50.635 61.5947 49.555 62.9547 47.395L63.1947 49.195C63.3147 49.795 63.7947 50.235 64.4747 50.235H66.3947C67.3147 50.235 68.0347 49.635 68.1947 48.715L70.6747 34.595C71.5147 29.835 69.4347 27.435 64.5147 27.435C59.4747 27.435 56.4747 29.475 55.2347 33.875C54.9547 34.795 55.4747 35.395 56.3947 35.395H59.5147C60.4347 35.395 61.0747 34.795 61.4347 33.915ZM63.3147 41.355L63.1547 42.395C62.7947 44.275 61.8747 45.315 60.5147 45.315C59.5147 45.315 59.1547 44.675 59.3547 43.395C59.5947 41.995 60.3147 41.355 61.6347 41.355H63.3147Z" fill="var(--color-subheading, #282520)" />
  <path d="M75.7503 22.155L71.0703 48.715C70.9103 49.635 71.3903 50.235 72.3103 50.235H75.4303C76.3503 50.235 77.0703 49.635 77.2303 48.715L81.9103 22.155C82.0703 21.235 81.5903 20.635 80.6703 20.635H77.5503C76.6303 20.635 75.9103 21.235 75.7503 22.155Z" fill="var(--color-subheading, #282520)" />
  <path d="M84.7738 22.155L80.0938 48.715C79.9338 49.635 80.4138 50.235 81.3338 50.235H84.4538C85.3738 50.235 86.0938 49.635 86.2538 48.715L90.9338 22.155C91.0938 21.235 90.6138 20.635 89.6938 20.635H86.5738C85.6538 20.635 84.9338 21.235 84.7738 22.155Z" fill="var(--color-subheading, #282520)" />
  <path d="M109.917 22.155C110.077 21.235 109.597 20.635 108.677 20.635H105.557C104.637 20.635 103.917 21.235 103.757 22.155L102.277 30.395C102.237 29.315 101.477 27.435 98.1572 27.435C93.3972 27.435 91.7972 31.275 90.9972 35.675L89.8372 42.355C89.0372 46.755 89.2772 50.635 94.2772 50.635C97.1972 50.635 99.3572 48.555 99.9572 47.435L100.237 49.195C100.317 49.835 100.837 50.235 101.517 50.235H103.437C104.357 50.235 105.077 49.635 105.237 48.715L109.917 22.155ZM99.6372 32.715C101.317 32.715 101.677 33.875 101.277 36.155L100.277 41.915C99.8772 44.195 99.1172 45.355 97.4372 45.355C95.6772 45.355 95.6772 44.075 95.9972 42.315L97.1572 35.755C97.4772 33.995 97.8772 32.715 99.6372 32.715Z" fill="var(--color-subheading, #282520)" />
  <path d="M119.702 27.435C114.262 27.435 111.022 29.915 109.982 35.675L108.822 42.395C107.782 48.155 110.142 50.635 115.582 50.635C121.022 50.635 124.262 48.155 125.302 42.395L126.462 35.675C127.502 29.915 125.142 27.435 119.702 27.435ZM118.742 32.715C120.702 32.715 120.622 33.915 120.302 35.675L119.142 42.395C118.822 44.155 118.502 45.355 116.542 45.355C114.582 45.355 114.662 44.155 114.982 42.395L116.142 35.675C116.462 33.915 116.782 32.715 118.742 32.715Z" fill="var(--color-subheading, #282520)" />
  <path d="M155.988 27.835H152.908C152.108 27.835 151.388 28.355 151.188 29.155L146.548 44.235L146.308 29.075C146.308 28.315 145.788 27.835 145.068 27.835H141.548C140.828 27.835 140.148 28.315 139.828 29.075L134.228 44.235L134.948 29.155C134.988 28.355 134.508 27.835 133.708 27.835H130.628C129.508 27.835 128.828 28.555 128.828 29.635L129.188 48.995C129.188 49.755 129.708 50.235 130.428 50.235H135.308C136.068 50.235 136.708 49.755 137.028 48.995L141.828 36.115L142.148 48.995C142.148 49.755 142.628 50.235 143.388 50.235H148.268C148.988 50.235 149.668 49.755 149.988 48.995L157.148 29.635C157.548 28.555 157.108 27.835 155.988 27.835Z" fill="var(--color-subheading, #282520)" />
  <path d="M159.314 29.355L155.914 48.715C155.754 49.635 156.234 50.235 157.154 50.235H160.274C161.194 50.235 161.914 49.635 162.074 48.715L164.274 36.155C164.674 33.955 165.394 32.715 167.074 32.715C168.834 32.715 168.834 34.035 168.554 35.755L166.274 48.715C166.114 49.635 166.594 50.235 167.514 50.235H170.634C171.554 50.235 172.274 49.635 172.434 48.715L174.714 35.755C175.474 31.355 175.274 27.435 170.274 27.435C167.354 27.435 165.114 29.515 164.514 30.635L164.274 28.915C164.194 28.275 163.714 27.835 163.034 27.835H161.114C160.194 27.835 159.474 28.435 159.314 29.355Z" fill="var(--color-subheading, #282520)" />
  <path d="M188.378 27.435C181.858 27.115 178.338 29.635 177.418 34.715C176.938 37.635 177.618 39.395 179.258 40.355C177.498 40.915 176.618 41.955 176.338 43.355C176.018 45.155 177.098 46.195 178.458 46.555C175.298 47.595 173.858 50.035 173.418 52.515C172.778 56.195 174.578 58.635 180.938 58.635C188.018 58.635 191.498 55.635 192.258 51.275C193.058 46.835 190.258 44.955 184.778 44.955H183.378C182.498 44.955 182.098 44.515 182.218 43.795C182.378 43.075 182.898 42.715 183.778 42.715H184.858C189.738 42.715 193.458 40.915 194.258 36.475C194.578 34.515 194.138 33.075 193.058 32.035L194.698 31.915C195.538 31.835 196.218 31.235 196.338 30.395L196.538 29.275C196.698 28.435 196.258 27.795 195.378 27.755L188.378 27.435ZM186.418 32.275C188.378 32.275 188.578 33.475 188.298 35.115C187.978 36.755 187.378 37.995 185.418 37.995C183.498 37.995 183.258 36.755 183.578 35.115C183.858 33.475 184.498 32.275 186.418 32.275ZM183.498 49.435C185.898 49.435 186.458 50.115 186.178 51.635C185.898 53.275 184.898 54.155 182.378 54.155C180.138 54.155 179.298 53.475 179.578 51.835C179.898 50.115 181.138 49.435 183.498 49.435Z" fill="var(--color-subheading, #282520)" />
  <path d="M206.459 27.435C201.019 27.435 197.779 29.915 196.739 35.675L195.579 42.395C194.539 48.155 196.899 50.635 202.339 50.635C207.779 50.635 211.019 48.155 212.059 42.395L213.219 35.675C214.259 29.915 211.899 27.435 206.459 27.435ZM205.499 32.715C207.459 32.715 207.379 33.915 207.059 35.675L205.899 42.395C205.579 44.155 205.259 45.355 203.299 45.355C201.339 45.355 201.419 44.155 201.739 42.395L202.899 35.675C203.219 33.915 203.539 32.715 205.499 32.715Z" fill="var(--color-subheading, #282520)" />
  <path d="M217.693 22.155L213.013 48.715C212.853 49.635 213.333 50.235 214.253 50.235H216.173C216.853 50.235 217.533 49.835 217.853 49.195L218.693 47.435C218.893 48.555 220.333 50.635 223.253 50.635C228.253 50.635 229.853 46.755 230.653 42.355L231.813 35.675C232.613 31.275 232.373 27.435 227.613 27.435C224.293 27.435 222.813 29.315 222.373 30.395L223.853 22.155C224.013 21.235 223.493 20.635 222.573 20.635H219.453C218.533 20.635 217.853 21.235 217.693 22.155ZM224.213 32.715C225.973 32.715 225.973 33.995 225.653 35.755L224.493 42.315C224.173 44.075 223.773 45.355 222.013 45.355C220.333 45.355 219.973 44.195 220.373 41.915L221.373 36.155C221.773 33.875 222.533 32.715 224.213 32.715Z" fill="var(--color-subheading, #282520)" />
  <path d="M243.686 27.435C238.246 27.435 235.006 29.915 233.966 35.675L232.806 42.395C231.766 48.155 234.126 50.635 239.566 50.635C245.006 50.635 248.246 48.155 249.286 42.395L250.446 35.675C251.486 29.915 249.126 27.435 243.686 27.435ZM242.726 32.715C244.686 32.715 244.606 33.915 244.286 35.675L243.126 42.395C242.806 44.155 242.486 45.355 240.526 45.355C238.566 45.355 238.646 44.155 238.966 42.395L240.126 35.675C240.446 33.915 240.766 32.715 242.726 32.715Z" fill="var(--color-subheading, #282520)" />
  <path d="M262.28 27.435C256.84 27.435 253.6 29.915 252.56 35.675L251.4 42.395C250.36 48.155 252.72 50.635 258.16 50.635C263.6 50.635 266.84 48.155 267.88 42.395L269.04 35.675C270.08 29.915 267.72 27.435 262.28 27.435ZM261.32 32.715C263.28 32.715 263.2 33.915 262.88 35.675L261.72 42.395C261.4 44.155 261.08 45.355 259.12 45.355C257.16 45.355 257.24 44.155 257.56 42.395L258.72 35.675C259.04 33.915 259.36 32.715 261.32 32.715Z" fill="var(--color-subheading, #282520)" />
  <path d="M272.673 29.355L269.273 48.715C269.113 49.635 269.593 50.235 270.513 50.235H273.633C274.553 50.235 275.273 49.635 275.433 48.715L277.633 36.155C278.033 33.955 278.753 32.715 280.433 32.715C282.193 32.715 282.193 34.035 281.913 35.755L279.633 48.715C279.473 49.635 279.953 50.235 280.873 50.235H283.993C284.913 50.235 285.633 49.635 285.793 48.715L288.073 35.755C288.833 31.355 288.633 27.435 283.633 27.435C280.713 27.435 278.473 29.515 277.873 30.635L277.633 28.915C277.553 28.275 277.073 27.835 276.393 27.835H274.473C273.553 27.835 272.833 28.435 272.673 29.355Z" fill="var(--color-subheading, #282520)" />
  <path d="M306.128 39.515L307.008 34.915C307.808 30.195 305.448 27.435 300.168 27.435C294.888 27.435 291.568 30.115 290.568 35.675L289.408 42.395C288.328 48.355 290.848 50.635 295.888 50.635C300.888 50.635 303.848 49.235 305.128 44.555C305.368 43.635 304.887 43.035 303.967 43.035H300.848C299.928 43.035 299.327 43.675 298.927 44.515C298.647 45.195 298.128 45.515 296.928 45.515C295.328 45.515 295.128 44.795 295.408 43.155L295.808 41.035H304.367C305.287 41.035 305.968 40.435 306.128 39.515ZM300.568 36.475H296.608L296.808 35.315C297.088 33.715 297.607 32.555 299.247 32.555C300.927 32.555 301.047 33.635 300.767 35.275L300.568 36.475Z" fill="var(--color-subheading, #282520)" />
</svg>
