<svg width="82" height="48" viewBox="0 0 82 48" fill="none" xmlns="http://www.w3.org/2000/svg">
<path d="M14.0883 14.8628C15.1793 16.1963 14.8506 17.6296 14.8506 19.3157C15.6035 18.1864 18.1885 15.5656 19.4245 14.9112C20.4206 14.3839 20.7811 14.4849 21.3847 15.4436C22.2027 16.7427 22.6916 19.0984 22.6916 20.6226C22.6916 23.308 24.564 24.8099 26.2854 26.6243C27.3722 27.7699 28.5723 29.0679 28.5723 30.7263V32.4808C28.5723 34.6473 28.7901 36.7926 28.7901 38.9666C28.7901 41.1002 28.8908 43.7931 28.3061 45.8395C27.8739 47.3523 25.659 47.5033 24.3251 47.2069C22.3427 46.7663 20.4067 44.6921 19.001 43.2864C18.6061 42.8915 17.3281 40.7476 16.8108 41.6528C16.1862 42.746 14.1453 43.2743 12.9872 43.2743C12.1909 43.2743 12.0191 41.6006 12.0191 40.8784C12.0191 39.5782 11.0505 37.6898 10.7097 36.4288C10.2256 34.6375 9.97149 33.2772 9.23607 31.5612C8.35715 29.5104 6.54357 27.7369 5.9085 25.62C5.46533 24.1427 5.28169 22.7781 4.92837 21.2639L4.92262 21.2392C4.65781 20.1042 4.36199 18.8364 3.83935 17.7911C3.46406 17.0405 2.89291 16.3936 2.55672 15.6251C1.65831 13.5716 1.91458 11.0686 0.80218 9.09099C0.20258 8.02504 0.0398631 7.84898 0.0398631 6.56204C0.0398631 5.67602 -0.242001 4.23234 0.693278 3.68217C1.16885 3.40242 2.01937 3.25644 2.26631 2.76255C2.50652 2.28214 3.2958 -0.692052 3.69415 0.148891C4.60864 2.07949 6.02712 2.98969 7.40893 4.60179C8.13794 5.45231 8.47348 6.22011 8.86096 7.22755C8.98841 7.55891 9.20242 8.0225 9.52648 8.20767C10.7698 8.91815 11.7749 10.086 12.4426 11.3658C13.0974 12.6208 13.1866 13.7608 14.0883 14.8628Z" fill="#FFABE2"/>
<path fill-rule="evenodd" clip-rule="evenodd" d="M24.0779 41.5054C24.2959 41.511 24.5336 41.5352 24.6063 41.5595C24.8438 41.6384 25.3051 41.6187 25.5642 41.5185C26.0759 41.3203 26.1933 41.0914 26.2358 40.2073C26.2706 39.4861 26.2551 39.3916 25.7274 37.0878C25.1725 34.6653 24.4936 32.0802 24.0481 30.6928C23.5912 29.2701 22.2219 25.7191 21.5134 24.1193C21.3072 23.6536 21.0301 23.012 20.8975 22.6933C19.894 20.2815 19.0236 19.3482 17.7811 19.3523C17.4085 19.3535 17.3694 19.3629 17.1293 19.5078C16.9156 19.637 16.8319 19.728 16.6191 20.0637C16.1251 20.8425 15.4734 22.15 15.2215 22.8672C15.1304 23.127 15.0443 23.3395 15.0304 23.3395C15.0094 23.3395 13.4597 20.2252 12.3694 17.9918C11.8718 16.9719 10.4652 14.2324 10.2075 13.7805C9.75339 12.9842 9.22198 12.1459 8.72418 11.4408C8.45587 11.0608 8.08165 10.4983 7.89252 10.1905C7.4771 9.51469 6.35224 7.88093 6.01348 7.46135C5.39482 6.695 4.7 6.22675 4.18153 6.22675C4.11546 6.22675 4.03896 6.21978 3.96768 6.20872C3.88951 6.19647 3.81739 6.17911 3.772 6.15989C3.68508 6.12296 3.49427 6.09302 3.34801 6.09302C2.73455 6.09302 2.40891 6.56092 2.65033 7.0957C2.69454 7.1937 2.81088 7.39924 2.90906 7.55238C2.96134 7.63388 3.02371 7.75179 3.08037 7.8731C3.12979 7.97911 3.17502 8.08749 3.20528 8.17631C3.4319 8.83955 3.77015 9.77587 4.08688 10.6162C4.26222 11.0821 4.6388 12.1348 4.92376 12.9559C5.20855 13.7771 5.57924 14.7898 5.74736 15.2065C6.25053 16.4533 7.22795 19.0826 7.79165 20.7065C8.17798 21.8191 8.34895 22.451 8.79395 24.4091C9.00275 25.3282 9.28031 26.4512 9.4106 26.9047L9.83022 28.3635C9.93075 28.7125 10.1614 29.7152 10.3428 30.5918C10.4403 31.0627 10.5477 31.5745 10.639 32.0043C10.7177 32.3746 10.7844 32.6839 10.8226 32.8541C11.0084 33.6811 11.0827 34.0946 11.1994 34.9487C11.3039 35.7144 11.4826 36.7509 11.5719 37.1101C11.6055 37.2449 11.6558 37.5256 11.6837 37.7339C11.7114 37.9423 11.7735 38.2006 11.8216 38.308C11.9466 38.588 12.2936 38.9387 12.5925 39.0871C12.7339 39.1573 12.884 39.2326 12.9261 39.2543C12.9681 39.2759 13.1308 39.2938 13.2877 39.2938C13.4691 39.2938 13.6542 39.3263 13.7962 39.383C14.0543 39.4857 14.2765 39.4934 14.5148 39.4075C14.7412 39.3256 14.813 39.255 15.194 38.7395C15.6206 38.162 16.0419 37.3213 16.0419 37.0473C16.0419 36.9044 16.0708 36.8146 16.1462 36.7236C16.2035 36.6543 16.3856 36.387 16.5508 36.1297C17.5582 34.5601 18.1666 33.664 18.4682 33.3055C18.4862 33.2842 18.663 33.5147 18.8612 33.8181C19.0596 34.1213 19.3624 34.5497 19.5344 34.7704C19.9362 35.286 20.0895 35.5441 20.5563 36.4905C20.9481 37.2847 21.7079 38.7584 22.1713 39.6222C22.314 39.8885 22.4424 40.1692 22.4566 40.246C22.4986 40.475 22.736 40.8886 22.9239 41.0606C23.0208 41.1491 23.2309 41.2832 23.3908 41.3584C23.6386 41.4751 23.7403 41.4962 24.0779 41.5054ZM14.3816 34.5662C14.2249 34.8017 14.0935 34.995 14.0208 35.0951C13.866 35.3086 13.7253 35.4999 13.7081 35.5194C13.6912 35.5392 13.6431 35.3285 13.6016 35.0515C13.4867 34.2857 13.3605 33.6723 12.8281 31.2945C12.2898 28.8906 12.317 28.9985 11.9248 27.7069C11.5598 26.5053 11.4388 26.0364 11.0672 24.3868C10.7078 22.7915 10.582 22.3234 10.2298 21.2728C9.88368 20.2406 8.85885 17.4494 8.35467 16.1663C8.12872 15.5912 7.94967 15.1143 7.95674 15.1076C7.98195 15.0821 8.99485 17.228 9.37076 18.1031C9.58124 18.5934 9.85308 19.2252 9.9748 19.507C10.0965 19.7889 10.4983 20.6412 10.8677 21.4011C12.6689 25.1062 12.9168 25.61 13.1192 26.132C13.165 26.2501 13.2083 26.369 13.2668 26.5261C13.571 27.3433 13.7517 27.6669 14.1019 28.0213C14.7306 28.6577 15.6247 28.9362 16.2775 28.6994C16.575 28.5915 16.8805 28.2759 17.0042 27.9485C17.0345 27.8687 17.11 27.7125 17.2038 27.5322C17.2781 27.3894 17.364 27.2315 17.4481 27.0848C17.8011 26.4684 18.1081 25.7904 18.2864 25.2336C18.3414 25.0621 18.3994 24.907 18.4152 24.8893C18.4312 24.8714 18.6388 25.3726 18.8769 26.0034C19.854 28.5918 20.4005 30.0783 20.5765 30.626C20.7705 31.2298 21.5899 34.1048 21.5899 34.1815C21.5899 34.2938 21.1061 33.6126 19.8872 31.7847C19.1038 30.6093 18.6509 30.2413 17.9492 30.2098C17.4509 30.1875 17.291 30.2792 17.0298 30.7378C16.8322 31.0842 16.5787 31.4352 15.9759 32.1974C15.7822 32.4423 15.3264 33.1071 14.9631 33.6745C14.77 33.9763 14.5595 34.2986 14.3816 34.5662Z" fill="#282520"/>
<path d="M32.7281 24.6861H33.1424L31.1299 36.2285C31.0115 36.9092 31.3667 37.3532 32.0474 37.3532H34.4151C35.0958 37.3532 35.6285 36.9092 35.7469 36.2285L37.7594 24.6861H38.8544C39.476 24.6861 40.0087 24.2422 40.1271 23.5911L40.423 21.8449C40.5414 21.2234 40.1863 20.7795 39.5647 20.7795H38.4697L38.5289 20.4835C38.6473 19.6548 38.9136 19.2997 39.7719 19.1813C40.4822 19.0925 40.9854 18.6782 41.1037 17.9975L41.4293 16.2809C41.5477 15.6002 41.1629 15.1562 40.4822 15.1858C36.4572 15.393 34.5334 16.8728 34.0007 19.8916L33.8527 20.7795H33.4384C32.8465 20.7795 32.3433 21.1938 32.2546 21.7857L31.8994 23.6799C31.8106 24.2718 32.1362 24.6861 32.7281 24.6861Z" fill="#282520"/>
<path d="M54.4237 16.5769C54.5421 15.8961 54.187 15.4522 53.5063 15.4522H51.1978C50.5171 15.4522 49.9844 15.8961 49.866 16.5769L48.7709 22.6736C48.7413 21.8745 48.179 20.4835 45.7225 20.4835C42.2006 20.4835 41.0168 23.3247 40.4249 26.5803L39.5666 31.5228C38.9747 34.7783 39.1523 37.6491 42.8517 37.6491C45.0122 37.6491 46.6104 36.1101 47.0544 35.2815L47.2615 36.5837C47.3207 37.0572 47.7055 37.3532 48.2086 37.3532H49.6292C50.3099 37.3532 50.8426 36.9092 50.961 36.2285L54.4237 16.5769ZM46.8176 24.3902C48.0606 24.3902 48.327 25.2485 48.031 26.9354L47.2911 31.1972C46.9952 32.8842 46.4328 33.7425 45.1898 33.7425C43.8876 33.7425 43.8876 32.7954 44.1244 31.4932L44.9826 26.6395C45.2194 25.3372 45.5154 24.3902 46.8176 24.3902Z" fill="#282520"/>
<path d="M62.7356 20.4835C57.9114 20.2467 55.307 22.1113 54.6263 25.87C54.2711 28.0305 54.7743 29.3327 55.9877 30.043C54.6855 30.4573 54.0344 31.2268 53.8272 32.2627C53.5904 33.5945 54.3895 34.364 55.3958 34.6304C53.0577 35.3998 51.9923 37.2052 51.6667 39.0401C51.1932 41.763 52.525 43.5683 57.2307 43.5683C62.4692 43.5683 65.0441 41.3486 65.6064 38.1227C66.1983 34.8375 64.1266 33.4465 60.0719 33.4465H59.0361C58.385 33.4465 58.089 33.121 58.1778 32.5882C58.2962 32.0555 58.6809 31.7891 59.332 31.7891H60.1311C63.7418 31.7891 66.4943 30.4573 67.0862 27.1722C67.3229 25.722 66.9974 24.6565 66.1983 23.887L67.4117 23.7983C68.0332 23.7391 68.5364 23.2951 68.6252 22.6736L68.7731 21.8449C68.8915 21.2234 68.566 20.7499 67.9149 20.7203L62.7356 20.4835ZM61.2854 24.0646C62.7356 24.0646 62.8835 24.9525 62.6764 26.1659C62.4396 27.3794 61.9957 28.2968 60.5455 28.2968C59.1249 28.2968 58.9473 27.3794 59.1841 26.1659C59.3912 24.9525 59.8648 24.0646 61.2854 24.0646ZM59.1249 36.7613C60.9006 36.7613 61.315 37.2644 61.1078 38.389C60.9006 39.6025 60.1607 40.2536 58.2962 40.2536C56.6388 40.2536 56.0173 39.7504 56.2245 38.537C56.4612 37.2644 57.3787 36.7613 59.1249 36.7613Z" fill="#282520"/>
<path d="M70.9577 16.5769L67.495 36.2285C67.3766 36.9092 67.7317 37.3532 68.4124 37.3532H69.833C70.3362 37.3532 70.8393 37.0572 71.0761 36.5837L71.6976 35.2815C71.8456 36.1101 72.911 37.6491 75.0715 37.6491C78.771 37.6491 79.9548 34.7783 80.5468 31.5228L81.405 26.5803C81.997 23.3247 81.8194 20.4835 78.2975 20.4835C75.841 20.4835 74.746 21.8745 74.4204 22.6736L75.5155 16.5769C75.6338 15.8961 75.2491 15.4522 74.5684 15.4522H72.2599C71.5792 15.4522 71.0761 15.8961 70.9577 16.5769ZM75.7818 24.3902C77.084 24.3902 77.084 25.3372 76.8473 26.6395L75.989 31.4932C75.7522 32.7954 75.4563 33.7425 74.154 33.7425C72.911 33.7425 72.6447 32.8842 72.9406 31.1972L73.6805 26.9354C73.9765 25.2485 74.5388 24.3902 75.7818 24.3902Z" fill="#282520"/>
</svg>
