<svg width="254" height="61" viewBox="0 0 254 61" fill="none" xmlns="http://www.w3.org/2000/svg">
  <path fill-rule="evenodd" clip-rule="evenodd" d="M17.4447 14.1948V0H24.2858C35.5282 0 40.8754 5.47998 40.8754 13.7676C40.8754 13.8809 40.8744 13.9937 40.8724 14.1055L40.8706 14.1948H52.8473C57.759 14.1948 61.7407 17.9468 61.7407 22.5752C61.7407 24.3755 61.1382 26.0435 60.1128 27.4092C61.9578 28.9214 63.1089 31.062 63.1089 33.4355C63.1089 38.0166 58.8209 41.7305 53.5314 41.7305H41.8181L41.7305 49.085H37.5499L36.9445 46.9043C34.8919 48.6797 32.0067 49.9399 28.0484 49.9399C20.3031 49.9399 14.0242 43.6611 14.0242 35.916C14.0242 34.6743 14.1855 33.4702 14.4884 32.3237H8.72235V41.7305H0V14.1948H17.4447ZM28.2194 34.7188L52.5052 34.7183C53.7332 34.7183 54.7286 33.7993 54.7286 32.666C54.7286 31.5322 53.7332 30.6133 52.5052 30.6133H46.3483V32.3237H33.4554C32.5596 30.4946 30.6846 29.2456 28.084 29.2456C24.3571 29.2456 22.4045 32.4131 22.4045 35.5767C22.4045 39.4956 24.2504 42.5859 28.794 42.5859C30.8558 42.5859 33.4058 41.334 33.9446 39.6782H28.2194V34.7188ZM38.31 26.1025V22.1475C37.7131 22.9233 37.0107 23.626 36.2014 24.248C36.9863 24.7896 37.6908 25.4121 38.31 26.1025ZM17.4447 22.2334H8.72235V25.6538H17.4447V22.2334ZM32.7872 13.7676C32.7872 17.6162 30.2061 19.4971 25.1409 19.4971V8.03809C30.2061 8.03809 32.7872 9.91943 32.7872 13.7676ZM46.3483 24.6274V20.5229H51.6501C52.878 20.5229 53.8734 21.4419 53.8734 22.5752C53.8734 23.7085 52.878 24.6274 51.6501 24.6274H46.3483Z" fill="#282520" />
  <path fill-rule="evenodd" clip-rule="evenodd" d="M79.9132 23.7637H76.3698V23.3647C76.3698 22.6709 76.5249 22.147 76.8349 21.7925C77.145 21.4233 77.61 21.2388 78.2301 21.2388C78.6287 21.2388 79.1233 21.2759 79.7139 21.3496L79.9575 18.6479C78.9831 18.5298 78.1858 18.4707 77.5657 18.4707C75.8679 18.4707 74.5982 18.8916 73.7566 19.7329C72.9298 20.5596 72.5164 21.7559 72.5164 23.3208V24.1177L70.6341 24.8711V26.4873H72.5164V36.3423H76.3698V26.4873H79.2028C79.6042 26.5596 79.7171 26.8369 79.8533 27.1851L80.0757 27.9937C80.9762 27.4028 81.7735 26.9746 82.4674 26.709C83.1613 26.4434 83.8109 26.3105 84.4162 26.3105C85.6564 26.3105 86.2765 26.9893 86.2765 28.3477V28.4365L85.6121 28.6357C83.9586 29.1079 82.7258 29.5142 81.9138 29.8535C81.1017 30.1787 80.4521 30.6216 79.9649 31.1826C79.4925 31.7285 79.2563 32.4741 79.2563 33.4189C79.2563 33.98 79.4039 34.4971 79.6992 34.9692C79.9944 35.4419 80.4078 35.8184 80.9393 36.0986C81.4708 36.3794 82.0688 36.5195 82.7332 36.5195C83.4713 36.5195 84.1505 36.4014 84.7706 36.165C85.3907 35.9292 86.0107 35.582 86.6308 35.1245C87.0737 36.0396 88.0038 36.4976 89.4212 36.4976C89.9084 36.4976 90.3292 36.4751 90.6835 36.4312C91.0526 36.3867 91.4734 36.313 91.9458 36.2095L91.813 33.5962C91.5324 33.6699 91.2519 33.707 90.9714 33.707C90.6761 33.707 90.462 33.6406 90.3292 33.5078C90.1963 33.3599 90.1299 33.124 90.1299 32.7993V28.5913C90.1299 26.731 89.746 25.417 88.9783 24.6494C88.2253 23.8818 87.1402 23.498 85.7228 23.498C84.5565 23.498 83.4492 23.6602 82.401 23.9849C81.7657 24.1846 81.1361 24.4316 80.5121 24.7261C80.0967 24.8525 79.9545 24.6523 79.9132 24.3843V23.7637ZM83.3311 33.5522C83.1834 33.4189 83.1096 33.2051 83.1096 32.9097C83.1096 32.4521 83.3015 32.0757 83.6854 31.7803C84.084 31.4702 84.837 31.1162 85.9443 30.7173L86.2765 30.6064V32.9541C85.4349 33.4858 84.7041 33.7515 84.084 33.7515C83.7445 33.7515 83.4935 33.6851 83.3311 33.5522Z" fill="#282520" />
  <path d="M92.2384 18.6255H96.0918V36.3423H92.2384V18.6255Z" fill="#282520" />
  <path d="M101.938 18.6255H98.0846V36.3423H101.938V18.6255Z" fill="#282520" />
  <path fill-rule="evenodd" clip-rule="evenodd" d="M115.779 18.6255V36.3423H112.922L112.568 35.4121C111.505 36.2095 110.309 36.6084 108.98 36.6084C107.814 36.6084 106.78 36.3647 105.88 35.8774C104.994 35.3755 104.3 34.6372 103.798 33.6626C103.296 32.6885 103.045 31.4927 103.045 30.0752C103.045 27.7427 103.702 26.0669 105.016 25.0479C106.33 24.0146 108.079 23.498 110.264 23.498C110.825 23.498 111.379 23.5493 111.925 23.6528V18.6255H115.779ZM106.943 30.0752C106.943 32.585 107.769 33.8398 109.423 33.8398C109.925 33.8398 110.368 33.7881 110.752 33.6851C111.15 33.5815 111.542 33.4116 111.925 33.1758V26.4209C111.438 26.3179 110.966 26.2661 110.508 26.2661C109.297 26.2661 108.397 26.5835 107.806 27.2183C107.23 27.8384 106.943 28.7905 106.943 30.0752Z" fill="#282520" />
  <path fill-rule="evenodd" clip-rule="evenodd" d="M119.861 35.7666C120.85 36.3276 122.068 36.6084 123.515 36.6084C124.932 36.6084 126.135 36.3057 127.124 35.7002C128.128 35.0947 128.881 34.2979 129.383 33.3086C129.885 32.3047 130.136 31.2119 130.136 30.0308C130.136 28.8496 129.885 27.7646 129.383 26.7754C128.881 25.7861 128.128 24.9966 127.124 24.4058C126.135 23.8003 124.932 23.498 123.515 23.498C121.359 23.498 119.713 24.0957 118.576 25.2915C117.454 26.4873 116.893 28.082 116.893 30.0752C116.893 31.3301 117.137 32.4521 117.624 33.4414C118.126 34.4307 118.871 35.2056 119.861 35.7666ZM125.596 32.9097C125.168 33.5298 124.474 33.8398 123.515 33.8398C122.555 33.8398 121.861 33.5298 121.433 32.9097C121.005 32.2896 120.791 31.3374 120.791 30.0532C120.791 28.7686 121.005 27.8164 121.433 27.1963C121.861 26.5762 122.555 26.2661 123.515 26.2661C124.474 26.2661 125.168 26.5762 125.596 27.1963C126.024 27.8164 126.239 28.7686 126.239 30.0532C126.239 31.3374 126.024 32.2896 125.596 32.9097Z" fill="#282520" />
  <path d="M148.836 23.7637L144.872 36.4531H141.107L139.181 27.8384L137.232 36.4531H133.467L129.503 23.7637H133.423L135.305 32.4668L137.32 23.7637H141.063L143.012 32.4668L144.961 23.7637H148.836Z" fill="#282520" />
  <path d="M160.284 24.8042C159.664 23.9331 158.534 23.498 156.895 23.498C155.552 23.498 154.157 23.9331 152.71 24.8042L152.311 23.7637H149.454V36.3423H153.308V27.0635C154.09 26.5615 154.858 26.3105 155.611 26.3105C156.305 26.3105 156.77 26.5098 157.006 26.9082C157.257 27.3071 157.383 28.0229 157.383 29.0566V36.3423H161.236V28.5693C161.236 26.9307 160.918 25.6753 160.284 24.8042Z" fill="#282520" />
  <path fill-rule="evenodd" clip-rule="evenodd" d="M175.222 26.5098L173.029 26.2217C173.221 26.6646 173.317 27.1519 173.317 27.6836C173.317 28.4365 173.118 29.1377 172.719 29.7871C172.32 30.437 171.722 30.9609 170.925 31.3594C170.128 31.7437 169.161 31.9355 168.024 31.9355C167.581 31.9355 167.19 31.9058 166.85 31.8467C166.511 32.2158 166.341 32.5259 166.341 32.7769C166.341 33.0278 166.415 33.2124 166.562 33.3306C166.71 33.4341 166.983 33.4858 167.382 33.4858H170.682C172.04 33.4858 173.103 33.7661 173.871 34.3271C174.638 34.8882 175.022 35.6484 175.022 36.6084C175.022 37.5679 174.69 38.439 174.026 39.2212C173.376 40.0186 172.475 40.646 171.324 41.104C170.172 41.5762 168.895 41.8125 167.493 41.8125C166.149 41.8125 165.057 41.6499 164.215 41.3252C163.388 41.0005 162.79 40.5796 162.421 40.063C162.067 39.5464 161.89 38.9927 161.89 38.4019C161.89 37.8706 162.045 37.376 162.355 36.918C162.68 36.4751 163.137 36.0322 163.728 35.5894C163.329 35.3682 163.034 35.0947 162.842 34.77C162.65 34.4307 162.554 34.0762 162.554 33.707C162.554 32.8213 163.218 31.9282 164.547 31.0273C163.957 30.6436 163.506 30.1636 163.196 29.5879C162.886 29.0122 162.731 28.3921 162.731 27.7275C162.731 26.9746 162.931 26.2808 163.329 25.646C163.728 24.9966 164.326 24.4795 165.123 24.0957C165.92 23.6973 166.887 23.498 168.024 23.498C168.792 23.498 169.471 23.5864 170.062 23.7637H175.222V26.5098ZM168.024 29.3887C168.511 29.3887 168.903 29.2485 169.198 28.9678C169.493 28.6724 169.641 28.252 169.641 27.7056C169.641 27.1592 169.493 26.7461 169.198 26.4653C168.917 26.1851 168.526 26.0444 168.024 26.0444C167.537 26.0444 167.146 26.1851 166.85 26.4653C166.555 26.7461 166.407 27.1592 166.407 27.7056C166.407 28.252 166.555 28.6724 166.85 28.9678C167.146 29.2485 167.537 29.3887 168.024 29.3887ZM171.346 37.1841C171.346 36.564 170.815 36.2539 169.751 36.2539H166.474C165.869 36.9033 165.566 37.5234 165.566 38.1143C165.566 38.7344 166.208 39.0444 167.493 39.0444C168.201 39.0444 168.851 38.9482 169.441 38.7563C170.032 38.5791 170.497 38.3428 170.837 38.0479C171.176 37.7671 171.346 37.479 171.346 37.1841Z" fill="#282520" />
  <path fill-rule="evenodd" clip-rule="evenodd" d="M177.589 35.7666C178.578 36.3276 179.796 36.6084 181.243 36.6084C182.66 36.6084 183.863 36.3057 184.852 35.7002C185.856 35.0947 186.609 34.2979 187.111 33.3086C187.613 32.3047 187.864 31.2119 187.864 30.0308C187.864 28.8496 187.613 27.7646 187.111 26.7754C186.609 25.7861 185.856 24.9966 184.852 24.4058C183.863 23.8003 182.66 23.498 181.243 23.498C179.087 23.498 177.441 24.0957 176.304 25.2915C175.182 26.4873 174.621 28.082 174.621 30.0752C174.621 31.3301 174.865 32.4521 175.352 33.4414C175.854 34.4307 176.599 35.2056 177.589 35.7666ZM183.324 32.9097C182.896 33.5298 182.202 33.8398 181.243 33.8398C180.283 33.8398 179.589 33.5298 179.161 32.9097C178.733 32.2896 178.519 31.3374 178.519 30.0532C178.519 28.7686 178.733 27.8164 179.161 27.1963C179.589 26.5762 180.283 26.2661 181.243 26.2661C182.202 26.2661 182.896 26.5762 183.324 27.1963C183.752 27.8164 183.967 28.7686 183.967 30.0532C183.967 31.3374 183.752 32.2896 183.324 32.9097Z" fill="#282520" />
  <path fill-rule="evenodd" clip-rule="evenodd" d="M195.395 23.498C196.562 23.498 197.588 23.749 198.474 24.251C199.374 24.7378 200.075 25.4688 200.577 26.4434C201.079 27.4175 201.33 28.6133 201.33 30.0308C201.33 31.5366 201.05 32.7842 200.489 33.7734C199.928 34.748 199.182 35.4639 198.252 35.9219C197.337 36.3794 196.325 36.6084 195.218 36.6084C194.008 36.6084 192.871 36.2168 191.808 35.4346L191.453 36.3423H188.597V18.6255H192.45V24.2729C193.336 23.7563 194.318 23.498 195.395 23.498ZM194.753 33.8398C195.683 33.8398 196.362 33.5298 196.79 32.9097C197.219 32.2896 197.433 31.3301 197.433 30.0308C197.433 27.521 196.606 26.2661 194.952 26.2661C194.45 26.2661 194 26.3179 193.602 26.4209C193.218 26.5244 192.834 26.6943 192.45 26.9307V33.1758C193.218 33.6187 193.985 33.8398 194.753 33.8398Z" fill="#282520" />
  <path fill-rule="evenodd" clip-rule="evenodd" d="M204.711 35.7666C205.7 36.3276 206.918 36.6084 208.365 36.6084C209.782 36.6084 210.986 36.3057 211.975 35.7002C212.979 35.0947 213.732 34.2979 214.234 33.3086C214.736 32.3047 214.987 31.2119 214.987 30.0308C214.987 28.8496 214.736 27.7646 214.234 26.7754C213.732 25.7861 212.979 24.9966 211.975 24.4058C210.986 23.8003 209.782 23.498 208.365 23.498C206.209 23.498 204.563 24.0957 203.426 25.2915C202.304 26.4873 201.743 28.082 201.743 30.0752C201.743 31.3301 201.987 32.4521 202.474 33.4414C202.976 34.4307 203.722 35.2056 204.711 35.7666ZM210.447 32.9097C210.019 33.5298 209.325 33.8398 208.365 33.8398C207.405 33.8398 206.711 33.5298 206.283 32.9097C205.855 32.2896 205.641 31.3374 205.641 30.0532C205.641 28.7686 205.855 27.8164 206.283 27.1963C206.711 26.5762 207.405 26.2661 208.365 26.2661C209.325 26.2661 210.019 26.5762 210.447 27.1963C210.875 27.8164 211.089 28.7686 211.089 30.0532C211.089 31.3374 210.875 32.2896 210.447 32.9097Z" fill="#282520" />
  <path fill-rule="evenodd" clip-rule="evenodd" d="M222.008 36.6084C220.561 36.6084 219.343 36.3276 218.354 35.7666C217.365 35.2056 216.619 34.4307 216.117 33.4414C215.63 32.4521 215.387 31.3301 215.387 30.0752C215.387 28.082 215.948 26.4873 217.07 25.2915C218.207 24.0957 219.853 23.498 222.008 23.498C223.426 23.498 224.629 23.8003 225.618 24.4058C226.622 24.9966 227.375 25.7861 227.877 26.7754C228.379 27.7646 228.63 28.8496 228.63 30.0308C228.63 31.2119 228.379 32.3047 227.877 33.3086C227.375 34.2979 226.622 35.0947 225.618 35.7002C224.629 36.3057 223.426 36.6084 222.008 36.6084ZM222.008 33.8398C222.968 33.8398 223.662 33.5298 224.09 32.9097C224.518 32.2896 224.732 31.3374 224.732 30.0532C224.732 28.7686 224.518 27.8164 224.09 27.1963C223.662 26.5762 222.968 26.2661 222.008 26.2661C221.049 26.2661 220.355 26.5762 219.927 27.1963C219.498 27.8164 219.284 28.7686 219.284 30.0532C219.284 31.3374 219.498 32.2896 219.927 32.9097C220.355 33.5298 221.049 33.8398 222.008 33.8398Z" fill="#282520" />
  <path d="M240.192 24.8042C239.571 23.9331 238.442 23.498 236.803 23.498C235.46 23.498 234.065 23.9331 232.618 24.8042L232.219 23.7637H229.362V36.3423H233.216V27.0635C233.998 26.5615 234.766 26.3105 235.519 26.3105C236.213 26.3105 236.678 26.5098 236.914 26.9082C237.165 27.3071 237.29 28.0229 237.29 29.0566V36.3423H241.144V28.5693C241.144 26.9307 240.826 25.6753 240.192 24.8042Z" fill="#282520" />
  <path fill-rule="evenodd" clip-rule="evenodd" d="M245.939 30.7617C246.013 31.8101 246.271 32.585 246.714 33.0869C247.157 33.5889 247.836 33.8398 248.751 33.8398C249.431 33.8398 250.058 33.7217 250.634 33.4858C251.224 33.2344 251.896 32.8657 252.649 32.3784L253.69 34.8145C252.907 35.4492 252.132 35.9067 251.365 36.1875C250.597 36.4678 249.718 36.6084 248.729 36.6084C247.268 36.6084 246.042 36.3276 245.053 35.7666C244.064 35.1909 243.326 34.4155 242.839 33.4414C242.366 32.4521 242.13 31.3301 242.13 30.0752C242.13 28.082 242.691 26.4873 243.813 25.2915C244.935 24.0957 246.574 23.498 248.729 23.498C250.442 23.498 251.741 23.9629 252.627 24.8931C253.528 25.8086 253.985 27.1147 254 28.813C254 29.4771 253.904 30.127 253.712 30.7617H245.939ZM250.257 28.2593C250.272 28.1704 250.28 28.0522 250.28 27.9048C250.265 27.2993 250.102 26.8418 249.792 26.5317C249.482 26.207 249.054 26.0444 248.508 26.0444C247.209 26.0444 246.397 26.7827 246.072 28.2593H250.257Z" fill="#282520" />
</svg>