<svg width="451" height="451" viewBox="0 0 451 451" fill="none" xmlns="http://www.w3.org/2000/svg">
  <circle cx="225.449" cy="225.449" r="225.449" fill="#00FF84" />
  <path fill-rule="evenodd" clip-rule="evenodd" d="M145.906 56.7202V146.599H35.4487L35.4487 320.944H90.6761V261.386H127.183C125.265 268.644 124.244 276.267 124.244 284.128C124.244 333.169 164 372.925 213.041 372.925C238.103 372.925 256.371 364.945 269.368 353.703L273.201 367.511H299.672L300.226 320.944H374.393C407.884 320.944 435.035 297.43 435.035 268.424C435.035 253.396 427.746 239.842 416.065 230.269C422.557 221.62 426.372 211.06 426.372 199.661C426.372 170.356 401.161 146.599 370.061 146.599H294.231C294.251 145.702 294.261 144.8 294.261 143.893C294.261 91.4171 260.405 56.7202 189.221 56.7202L145.906 56.7202ZM278.016 276.547V276.548H214.123V307.952H250.374C246.962 318.434 230.816 326.361 217.762 326.361C188.993 326.361 177.305 306.795 177.305 281.981C177.305 261.951 189.669 241.895 213.266 241.895C229.733 241.895 241.605 249.802 247.276 261.386H328.912V250.557H367.896C375.671 250.557 381.973 256.375 381.973 263.551C381.973 270.728 375.671 276.546 367.896 276.546H348.402V276.547H278.016ZM278.016 196.953V221.997C274.095 217.624 269.635 213.682 264.665 210.254C269.789 206.314 274.237 201.866 278.016 196.953ZM90.6761 197.495H145.906V219.153H90.6761V197.495ZM194.636 180.17C226.707 180.17 243.049 168.26 243.049 143.893C243.049 119.526 226.707 107.616 194.636 107.616V180.17ZM328.912 186.666V212.656H362.481C370.256 212.656 376.559 206.838 376.559 199.661C376.559 192.484 370.256 186.666 362.481 186.666H328.912Z" fill="#282520" />
</svg>