<svg width="190" height="33" viewBox="0 0 190 33" fill="none" xmlns="http://www.w3.org/2000/svg">
<path fill-rule="evenodd" clip-rule="evenodd" d="M0 26.3363H3.65652V19.0693H9.79354C9.05806 20.4689 8.68986 22.1296 8.68986 24.0513C8.68986 26.8264 9.46661 29.0137 11.0201 30.6128C12.5096 32.2041 14.4216 33 16.7555 33C18.1736 33 19.3687 32.7061 20.3406 32.1179C20.9059 31.7806 21.5436 31.2006 22.2521 30.3778L22.6227 32.5414H25.0605V26.3363H31.4521C32.3522 26.3363 33.1865 26.2578 33.9553 26.1013C34.7242 25.9443 35.391 25.6545 35.9568 25.231C36.4586 24.8627 36.8768 24.4077 37.2117 23.867C37.7371 23.0514 38 22.1305 38 21.1037C38 20.108 37.7709 19.2614 37.3132 18.5636C36.855 17.8659 36.1757 17.3561 35.2756 17.0348C35.865 16.7368 36.3111 16.4078 36.6139 16.0468C37.1555 15.4043 37.4264 14.5536 37.4264 13.4954C37.4264 12.4686 37.1555 11.5864 36.6139 10.8494C35.7138 9.6501 34.1844 9.03493 32.0253 9.00344H25.6457C25.6578 8.75427 25.6638 8.501 25.6638 8.24315C25.6638 7.33364 25.5521 6.37757 25.329 5.37405C25.1059 4.37052 24.6877 3.43773 24.0746 2.57522C23.3095 1.50917 22.3101 0.776261 21.0752 0.376494C20.3504 0.141014 19.4419 0.0155161 18.3508 0H10.7632V9.02672H0V26.3363ZM19.3367 18.1365C20.3699 18.5846 21.0367 19.3572 21.3386 20.4543H26.9831V18.7047H31.3682C32.1329 18.7124 32.7264 18.8105 33.1489 18.9985C33.9057 19.3358 34.2837 19.9551 34.2837 20.8564C34.2837 21.9229 33.8937 22.6439 33.1127 23.0204C32.6829 23.2239 32.0814 23.3262 31.3084 23.3262H17.7238V26.1328H21.7982C21.615 27.2691 21.129 28.1886 20.3406 28.8901C19.5518 29.5915 18.54 29.9424 17.3055 29.9424C16.047 29.9424 14.9233 29.4998 13.9356 28.6135C12.9478 27.7277 12.454 26.2186 12.454 24.0865C12.454 21.9699 12.9103 20.3845 13.8224 19.3299C14.7341 18.2757 15.8995 17.7481 17.3176 17.7481C18.0582 17.7481 18.7315 17.8777 19.3367 18.1365ZM22.3528 16.1961C22.759 15.9136 23.1314 15.5786 23.4699 15.1912V17.2069C23.2288 16.9372 22.9607 16.6807 22.6644 16.437C22.5633 16.3535 22.459 16.2732 22.3528 16.1961ZM3.65652 12.0724H10.7632V16.0587H3.65652V12.0724ZM26.9831 12.0136H30.8544C31.7067 12.0136 32.4079 12.1039 32.9574 12.2842C33.595 12.5429 33.9136 13.076 33.9136 13.8833C33.9136 14.6125 33.6725 15.12 33.1906 15.4061C32.7084 15.6923 32.0814 15.8355 31.3084 15.8355H26.9831V12.0136ZM14.3358 3.01012H17.7294C19.4021 3.01012 20.5196 3.48245 21.0812 4.42711C21.6428 5.37176 21.9234 6.72623 21.9234 8.49004C21.9234 9.76784 21.7365 10.8695 21.3618 11.7945C20.6769 13.4798 19.466 14.3227 17.7294 14.3227H14.3358V3.01012Z" fill="#2E0073"/>
<path d="M52.7021 10.9131C52.8604 10.9131 53.0039 10.9189 53.1328 10.9307C53.2617 10.9365 53.4375 10.9482 53.6602 10.9658V13.0049C53.5195 12.9873 53.2822 12.9756 52.9482 12.9697C52.6201 12.958 52.3916 13.0312 52.2627 13.1895C52.1396 13.3418 52.0781 13.5117 52.0781 13.6992V14.5078H53.7217V16.2744H52.0781V24H49.582V16.2744H48.1846V14.5078H49.5557V13.8926C49.5557 12.8672 49.7285 12.1611 50.0742 11.7744C50.4375 11.2002 51.3135 10.9131 52.7021 10.9131Z" fill="#2E0073"/>
<path fill-rule="evenodd" clip-rule="evenodd" d="M58.3848 18.1729C58.8477 18.1143 59.1787 18.041 59.378 17.9531C59.7354 17.8008 59.9141 17.5635 59.9141 17.2412C59.9141 16.8486 59.7764 16.5791 59.501 16.4326C59.2315 16.2803 58.833 16.2041 58.3057 16.2041C57.7139 16.2041 57.295 16.3506 57.0489 16.6436C56.8731 16.8604 56.7559 17.1533 56.6973 17.5225H54.2803C54.333 16.6846 54.5674 15.9961 54.9834 15.457C55.6455 14.6133 56.7823 14.1914 58.3936 14.1914C59.4424 14.1914 60.3741 14.3994 61.1885 14.8154C62.003 15.2314 62.4102 16.0166 62.4102 17.1709V21.5654C62.4102 21.8701 62.4161 22.2393 62.4278 22.6729C62.4454 23.001 62.4952 23.2236 62.5772 23.3408C62.6592 23.458 62.7823 23.5547 62.9463 23.6309V24H60.2217C60.1455 23.8066 60.0928 23.625 60.0635 23.4551C60.0342 23.2852 60.0108 23.0918 59.9932 22.875C59.6475 23.25 59.2491 23.5693 58.7979 23.833C58.2588 24.1436 57.6495 24.2988 56.9698 24.2988C56.1026 24.2988 55.3848 24.0527 54.8164 23.5605C54.2539 23.0625 53.9727 22.3594 53.9727 21.4512C53.9727 20.2734 54.4268 19.4209 55.335 18.8936C55.833 18.6064 56.5655 18.4014 57.5323 18.2783L58.3848 18.1729ZM59.9053 19.3418C59.7471 19.4414 59.586 19.5234 59.4219 19.5879C59.2637 19.6465 59.044 19.7021 58.7627 19.7549L58.2002 19.8604C57.6729 19.9541 57.295 20.0684 57.0664 20.2031C56.6797 20.4316 56.4864 20.7861 56.4864 21.2666C56.4864 21.6943 56.6036 22.0049 56.8379 22.1982C57.0782 22.3857 57.3682 22.4795 57.708 22.4795C58.2471 22.4795 58.7422 22.3213 59.1934 22.0049C59.6504 21.6885 59.8877 21.1113 59.9053 20.2734V19.3418Z" fill="#2E0073"/>
<path d="M64.1553 24H66.6602V11.0449H64.1553V24Z" fill="#2E0073"/>
<path d="M71.13 24H68.6251V11.0449H71.13V24Z" fill="#2E0073"/>
<path fill-rule="evenodd" clip-rule="evenodd" d="M78.1222 14.5781C77.6711 14.3203 77.1554 14.1914 76.5753 14.1914C75.3156 14.1914 74.3078 14.6602 73.5519 15.5977C72.8019 16.5352 72.4269 17.8213 72.4269 19.4561C72.4269 20.874 72.8078 22.0371 73.5695 22.9453C74.3371 23.8477 75.2804 24.2988 76.3996 24.2988C77.0793 24.2988 77.6476 24.1699 78.1046 23.9121C78.5617 23.6543 78.9689 23.2412 79.3263 22.6729V24H81.7609V11.0625H79.2209V15.6328C78.9396 15.1816 78.5734 14.8301 78.1222 14.5781ZM78.7375 21.3984C78.3683 21.9258 77.8293 22.1895 77.1203 22.1895C76.4113 22.1895 75.881 21.9258 75.5294 21.3984C75.1837 20.8652 75.0109 20.1562 75.0109 19.2715C75.0109 18.4512 75.1808 17.7656 75.5207 17.2148C75.8664 16.6582 76.4054 16.3799 77.1378 16.3799C77.6183 16.3799 78.0402 16.5322 78.4035 16.8369C78.9953 17.3408 79.2912 18.1787 79.2912 19.3506C79.2912 20.1885 79.1066 20.8711 78.7375 21.3984Z" fill="#2E0073"/>
<path fill-rule="evenodd" clip-rule="evenodd" d="M92.7082 19.2275C92.7082 20.6338 92.3039 21.8379 91.4953 22.8398C90.6867 23.8359 89.4592 24.334 87.8127 24.334C86.1662 24.334 84.9387 23.8359 84.1301 22.8398C83.3215 21.8379 82.9172 20.6338 82.9172 19.2275C82.9172 17.8447 83.3215 16.6465 84.1301 15.6328C84.9387 14.6191 86.1662 14.1123 87.8127 14.1123C89.4592 14.1123 90.6867 14.6191 91.4953 15.6328C92.3039 16.6465 92.7082 17.8447 92.7082 19.2275ZM87.8039 22.2334C88.5363 22.2334 89.0988 21.9727 89.4914 21.4512C89.884 20.9297 90.0803 20.1885 90.0803 19.2275C90.0803 18.2666 89.884 17.5283 89.4914 17.0127C89.0988 16.4912 88.5363 16.2305 87.8039 16.2305C87.0715 16.2305 86.5061 16.4912 86.1076 17.0127C85.715 17.5283 85.5188 18.2666 85.5188 19.2275C85.5188 20.1885 85.715 20.9297 86.1076 21.4512C86.5061 21.9727 87.0715 22.2334 87.8039 22.2334Z" fill="#2E0073"/>
<path d="M101.028 14.4199H98.4875L97.1077 21.293L95.6135 14.4199H92.9241L95.6135 24H98.2151L99.7356 17.0215L101.239 24H103.814L106.591 14.4199H103.981L102.487 21.3193L101.028 14.4199Z" fill="#2E0073"/>
<path d="M112.748 14.1914C113.739 14.1914 114.547 14.4521 115.174 14.9736C115.807 15.4893 116.123 16.3477 116.123 17.5488V24H113.557V18.1729C113.557 17.6689 113.49 17.2822 113.355 17.0127C113.109 16.5205 112.64 16.2744 111.949 16.2744C111.099 16.2744 110.516 16.6348 110.199 17.3555C110.035 17.7363 109.953 18.2227 109.953 18.8145V24H107.457V14.4375H109.874V15.835C110.197 15.3428 110.501 14.9883 110.788 14.7715C111.304 14.3848 111.957 14.1914 112.748 14.1914Z" fill="#2E0073"/>
<path fill-rule="evenodd" clip-rule="evenodd" d="M122.65 14.4111C122.292 14.2646 121.873 14.1914 121.393 14.1914C120.092 14.1914 119.087 14.6777 118.378 15.6504C117.669 16.6172 117.315 17.8125 117.315 19.2363C117.315 20.7129 117.681 21.8848 118.413 22.752C119.152 23.6133 120.136 24.0439 121.367 24.0439C122.163 24.0439 122.811 23.8535 123.309 23.4727C123.584 23.2676 123.842 22.96 124.082 22.5498V23.165C124.082 24.0791 123.983 24.7295 123.784 25.1162C123.479 25.7197 122.875 26.0215 121.973 26.0215C121.334 26.0215 120.88 25.9072 120.611 25.6787C120.452 25.5498 120.338 25.3389 120.268 25.0459H117.543C117.625 26.001 118.053 26.7188 118.826 27.1992C119.6 27.6797 120.599 27.9199 121.824 27.9199C123.851 27.9199 125.222 27.3809 125.937 26.3027C126.353 25.6758 126.561 24.7441 126.561 23.5078V14.4199H124.126V15.7998C123.751 15.126 123.259 14.6631 122.65 14.4111ZM123.502 21.2842C123.098 21.7236 122.603 21.9434 122.017 21.9434C121.138 21.9434 120.529 21.5391 120.189 20.7305C120.001 20.2969 119.908 19.8018 119.908 19.2451C119.908 18.6006 119.995 18.0586 120.171 17.6191C120.505 16.793 121.112 16.3799 121.991 16.3799C122.635 16.3799 123.148 16.6172 123.529 17.0918C123.915 17.5664 124.109 18.2578 124.109 19.166C124.109 20.1328 123.907 20.8389 123.502 21.2842Z" fill="#2E0073"/>
<path fill-rule="evenodd" clip-rule="evenodd" d="M137.57 19.2275C137.57 20.6338 137.165 21.8379 136.357 22.8398C135.548 23.8359 134.321 24.334 132.674 24.334C131.028 24.334 129.8 23.8359 128.992 22.8398C128.183 21.8379 127.779 20.6338 127.779 19.2275C127.779 17.8447 128.183 16.6465 128.992 15.6328C129.8 14.6191 131.028 14.1123 132.674 14.1123C134.321 14.1123 135.548 14.6191 136.357 15.6328C137.165 16.6465 137.57 17.8447 137.57 19.2275ZM132.665 22.2334C133.398 22.2334 133.96 21.9727 134.353 21.4512C134.745 20.9297 134.942 20.1885 134.942 19.2275C134.942 18.2666 134.745 17.5283 134.353 17.0127C133.96 16.4912 133.398 16.2305 132.665 16.2305C131.933 16.2305 131.368 16.4912 130.969 17.0127C130.577 17.5283 130.38 18.2666 130.38 19.2275C130.38 20.1885 130.577 20.9297 130.969 21.4512C131.368 21.9727 131.933 22.2334 132.665 22.2334Z" fill="#2E0073"/>
<path fill-rule="evenodd" clip-rule="evenodd" d="M146.961 15.5713C146.252 14.6631 145.268 14.209 144.008 14.209C143.311 14.209 142.737 14.3555 142.286 14.6484C141.905 14.8828 141.556 15.2227 141.24 15.668V11.0625H138.744V24H141.196V22.7959C141.53 23.2646 141.84 23.5928 142.127 23.7803C142.608 24.0967 143.244 24.2549 144.035 24.2549C145.294 24.2549 146.276 23.7656 146.979 22.7871C147.682 21.8086 148.034 20.5752 148.034 19.0869C148.034 17.6514 147.676 16.4795 146.961 15.5713ZM144.87 21.4072C144.512 21.9287 144.011 22.1895 143.367 22.1895C142.622 22.1895 142.069 21.9199 141.705 21.3809C141.342 20.8418 141.161 20.1621 141.161 19.3418C141.161 18.6445 141.248 18.0762 141.424 17.6367C141.764 16.8105 142.388 16.3975 143.296 16.3975C144.193 16.3975 144.808 16.8193 145.142 17.6631C145.318 18.1084 145.406 18.6709 145.406 19.3506C145.406 20.2002 145.227 20.8857 144.87 21.4072Z" fill="#2E0073"/>
<path fill-rule="evenodd" clip-rule="evenodd" d="M158.497 19.2275C158.497 20.6338 158.093 21.8379 157.285 22.8398C156.476 23.8359 155.248 24.334 153.602 24.334C151.956 24.334 150.728 23.8359 149.919 22.8398C149.111 21.8379 148.706 20.6338 148.706 19.2275C148.706 17.8447 149.111 16.6465 149.919 15.6328C150.728 14.6191 151.956 14.1123 153.602 14.1123C155.248 14.1123 156.476 14.6191 157.285 15.6328C158.093 16.6465 158.497 17.8447 158.497 19.2275ZM153.593 22.2334C154.326 22.2334 154.888 21.9727 155.281 21.4512C155.673 20.9297 155.87 20.1885 155.87 19.2275C155.87 18.2666 155.673 17.5283 155.281 17.0127C154.888 16.4912 154.326 16.2305 153.593 16.2305C152.861 16.2305 152.295 16.4912 151.897 17.0127C151.504 17.5283 151.308 18.2666 151.308 19.2275C151.308 20.1885 151.504 20.9297 151.897 21.4512C152.295 21.9727 152.861 22.2334 153.593 22.2334Z" fill="#2E0073"/>
<path fill-rule="evenodd" clip-rule="evenodd" d="M167.749 22.8398C168.557 21.8379 168.961 20.6338 168.961 19.2275C168.961 17.8447 168.557 16.6465 167.749 15.6328C166.94 14.6191 165.712 14.1123 164.066 14.1123C162.419 14.1123 161.192 14.6191 160.383 15.6328C159.575 16.6465 159.17 17.8447 159.17 19.2275C159.17 20.6338 159.575 21.8379 160.383 22.8398C161.192 23.8359 162.419 24.334 164.066 24.334C165.712 24.334 166.94 23.8359 167.749 22.8398ZM165.745 21.4512C165.352 21.9727 164.79 22.2334 164.057 22.2334C163.325 22.2334 162.759 21.9727 162.361 21.4512C161.968 20.9297 161.772 20.1885 161.772 19.2275C161.772 18.2666 161.968 17.5283 162.361 17.0127C162.759 16.4912 163.325 16.2305 164.057 16.2305C164.79 16.2305 165.352 16.4912 165.745 17.0127C166.137 17.5283 166.333 18.2666 166.333 19.2275C166.333 20.1885 166.137 20.9297 165.745 21.4512Z" fill="#2E0073"/>
<path d="M175.532 14.1914C176.522 14.1914 177.331 14.4521 177.958 14.9736C178.59 15.4893 178.907 16.3477 178.907 17.5488V24H176.34V18.1729C176.34 17.6689 176.273 17.2822 176.138 17.0127C175.892 16.5205 175.423 16.2744 174.732 16.2744C173.882 16.2744 173.299 16.6348 172.983 17.3555C172.819 17.7363 172.737 18.2227 172.737 18.8145V24H170.241V14.4375H172.658V15.835C172.98 15.3428 173.285 14.9883 173.572 14.7715C174.087 14.3848 174.741 14.1914 175.532 14.1914Z" fill="#2E0073"/>
<path fill-rule="evenodd" clip-rule="evenodd" d="M186.62 14.6133C185.981 14.3145 185.263 14.165 184.466 14.165C183.125 14.165 182.032 14.6074 181.188 15.4922C180.35 16.377 179.931 17.6484 179.931 19.3066C179.931 21.0762 180.397 22.3535 181.329 23.1387C182.26 23.9238 183.336 24.3164 184.554 24.3164C186.031 24.3164 187.179 23.8506 188 22.9189C188.527 22.333 188.823 21.7559 188.887 21.1875H186.33C186.195 21.4688 186.04 21.6885 185.864 21.8467C185.542 22.1396 185.123 22.2861 184.607 22.2861C184.121 22.2861 183.705 22.166 183.359 21.9258C182.791 21.5391 182.489 20.8652 182.454 19.9043H189.01C189.022 19.0781 188.996 18.4453 188.931 18.0059C188.82 17.2559 188.577 16.5967 188.202 16.0283C187.786 15.3838 187.258 14.9121 186.62 14.6133ZM183.113 16.7754C183.435 16.4121 183.886 16.2305 184.466 16.2305C185 16.2305 185.445 16.4033 185.802 16.749C186.166 17.0889 186.368 17.5898 186.409 18.252H182.515C182.597 17.6309 182.796 17.1387 183.113 16.7754Z" fill="#2E0073"/>
</svg>
